<svg width="47" height="44" viewBox="0 0 47 44" fill="none" xmlns="http://www.w3.org/2000/svg">
<path d="M46.6689 21.7163C46.6689 9.94702 36.3649 0.356445 23.7202 0.356445C11.0755 0.356445 0.771484 9.94702 0.771484 21.7163C0.771484 27.9107 3.64007 33.4856 8.18392 37.3945C8.18392 37.4158 8.18392 37.4158 8.16097 37.4372C8.39046 37.6508 8.66584 37.8216 8.89533 38.0139C9.03302 38.1207 9.14776 38.2275 9.28546 38.3129C9.69853 38.6333 10.1575 38.9324 10.5935 39.2314C10.7542 39.3382 10.8919 39.4236 11.0525 39.5304C11.4885 39.8081 11.9475 40.0644 12.4294 40.2994C12.5901 40.3848 12.7737 40.4916 12.9343 40.5771C13.3933 40.812 13.8752 41.0256 14.3801 41.2179C14.5637 41.3033 14.7472 41.3887 14.9308 41.4528C15.4357 41.6451 15.9406 41.8159 16.4455 41.9655C16.629 42.0295 16.8126 42.0936 16.9962 42.1363C17.547 42.2859 18.0978 42.414 18.6485 42.5422C18.8092 42.5849 18.9698 42.6276 19.1534 42.649C19.796 42.7771 20.4385 42.8626 21.104 42.9267C21.1958 42.9267 21.2876 42.948 21.3794 42.9694C22.1597 43.0335 22.9399 43.0762 23.7202 43.0762C24.5004 43.0762 25.2807 43.0335 26.038 42.9694C26.1298 42.9694 26.2216 42.948 26.3134 42.9267C26.9789 42.8626 27.6215 42.7771 28.264 42.649C28.4247 42.6276 28.5853 42.5635 28.7689 42.5422C29.3197 42.414 29.8934 42.3072 30.4212 42.1363C30.6048 42.0723 30.7884 42.0082 30.972 41.9655C31.4769 41.7946 32.0047 41.6451 32.4866 41.4528C32.6702 41.3887 32.8538 41.3033 33.0374 41.2179C33.5193 41.0256 34.0012 40.812 34.4831 40.5771C34.6667 40.4916 34.8274 40.3848 34.988 40.2994C35.447 40.0431 35.906 39.8081 36.3649 39.5304C36.5256 39.445 36.6633 39.3382 36.8239 39.2314C37.2829 38.9324 37.7189 38.6333 38.132 38.3129C38.2697 38.2061 38.3844 38.0993 38.5221 38.0139C38.7745 37.8216 39.027 37.6294 39.2565 37.4372C39.2565 37.4158 39.2565 37.4158 39.2335 37.3945C43.8003 33.4856 46.6689 27.9107 46.6689 21.7163ZM35.0569 32.3322C28.8378 28.4447 18.6485 28.4447 12.3835 32.3322C11.3738 32.9516 10.5476 33.6778 9.85917 34.4681C6.37097 31.1787 4.21379 26.6718 4.21379 21.7163C4.21379 11.6985 12.9572 3.56043 23.7202 3.56043C34.4831 3.56043 43.2266 11.6985 43.2266 21.7163C43.2266 26.6718 41.0694 31.1787 37.5812 34.4681C36.9157 33.6778 36.0666 32.9516 35.0569 32.3322Z" fill="white"/>
<path d="M23.719 10.8867C18.9687 10.8867 15.1133 14.4752 15.1133 18.8967C15.1133 23.2327 18.7621 26.7571 23.6043 26.8853H23.8108H23.9715H24.0174C28.653 26.7358 32.3019 23.2327 32.3248 18.8967C32.3248 14.4752 28.4694 10.8867 23.719 10.8867Z" fill="white"/>
</svg>
